#!OML:ASF I:\salsa\salsa 7_09\Patient 1\Session 1\dancermale.ASF
:FULLY-SPECIFIED
:DEGREES
2059
root -1.85179 16.192 -9.64839 1087.61 107.611 1078.68
lowerback -1.84996 10.5862 12.1722
upperback -3.48645 14.1485 -1.11805
thorax 0.472434 6.98811 -7.05027
lowerneck -1.99994 -17.6256 -7.74505
upperneck 15.4713 -23.8473 5.62297
head 6.66503 -11.4846 1.13653
rclavicle -9.01985e-014 -8.74653e-015
rhumerus -15.3311 12.0801 -67.6196
rradius 78.7027
rwrist -236.06
rhand -58.6281 -3.12822
rfingers 7.12502
rthumb -30.8448 -30.5592
lclavicle -9.01985e-014 -8.74653e-015
lhumerus -10.4021 14.1997 45.3197
lradius 140.444
lwrist 97.3158
lhand -23.9302 50.0056
lfingers 7.12502
lthumb 2.54476 439.97
rfemur 5.3288 1.15781 -0.985812
rtibia 14.3494
rfoot -22.3217 -43.8584
rtoes 16.6875
lfemur -41.6086 4.46679 -12.4652
ltibia 45.5945
lfoot -21.5387 -2.07501
ltoes -35.1999
2060
root -1.85063 16.1497 -9.67977 1088.02 108.185 1078.78
lowerback -1.54406 10.6343 12.5053
upperback -3.50925 14.2537 -1.26015
thorax 0.41291 7.03338 -7.40869
lowerneck -2.06107 -17.8445 -7.50089
upperneck 15.0505 -24.1805 5.87901
head 6.56495 -11.6295 1.1582
rclavicle -4.19187e-014 3.02153e-014
rhumerus -15.5041 11.6829 -68.3266
rradius 78.2158
rwrist -235.324
rhand -58.3613 -3.11743
rfingers 7.12502
rthumb -30.5905 -30.5961
lclavicle -4.19187e-014 3.02153e-014
lhumerus -10.7955 13.1275 46.1292
lradius 140.302
lwrist 96.6729
lhand -24.6284 50.2284
lfingers 7.12502
lthumb 1.87048 440.2
rfemur 5.1141 1.37072 -0.988376
rtibia 14.9925
rfoot -23.4203 -42.8032
rtoes 18.5742
lfemur -42.5237 4.99852 -12.8496
ltibia 46.3417
lfoot -22.1278 -2.30228
ltoes -36.9813
2061
root -1.85236 16.1046 -9.7098 1088.41 108.768 1078.91
lowerback -1.31968 10.6401 12.4514
upperback -3.4641 14.2953 -1.01693
thorax 0.271493 7.04811 -7.17269
lowerneck -1.95759 -18.0357 -7.72608
upperneck 14.5576 -24.4404 6.09982
head 6.46345 -11.7743 1.24515
rclavicle -1.67973e-014 -5.56597e-015
rhumerus -15.362 12.0535 -68.2497
rradius 77.4711
rwrist -235.232
rhand -58.0166 -2.92394
rfingers 7.12502
rthumb -30.2617 -30.4635
lclavicle -1.67973e-014 -5.56597e-015
lhumerus -11.5481 12.1684 47.2991
lradius 140.119
lwrist 96.1638
lhand -25.0754 49.7821
lfingers 7.12502
lthumb 1.43871 439.757
rfemur 5.02407 1.72169 -0.943811
rtibia 15.5324
rfoot -25.1116 -41.6622
rtoes 21.6121
lfemur -43.3789 5.50327 -13.2194
ltibia 47.0846
lfoot -22.584 -2.84216
ltoes -37.7171
2062
root -1.86023 16.0541 -9.74067 1089.24 109.515 1079.29
lowerback -1.6613 10.5559 12.3486
upperback -3.19469 14.1235 -0.550323
thorax 0.567468 6.99042 -6.57142
lowerneck -1.99633 -18.1153 -8.05231
upperneck 13.7318 -24.5161 6.23641
head 6.26752 -11.8556 1.34097
rclavicle 1.07344e-014 -1.27222e-014
rhumerus -14.526 13.2252 -67.5237
rradius 76.5921
rwrist -235.369
rhand -57.2095 -3.67874
rfingers 7.12502
rthumb -29.4915 -31.3569
lclavicle 1.07344e-014 -1.27222e-014
lhumerus -12.2269 11.6623 48.7074
lradius 139.81
lwrist 95.6831
lhand -24.9966 49.5519
lfingers 7.12502
lthumb 1.5149 439.526
rfemur 4.75772 1.73003 -0.823561
rtibia 16.0064
rfoot -25.5519 -41.1383
rtoes 21.0641
lfemur -44.6127 5.86316 -13.5201
ltibia 47.9927
lfoot -22.8354 -3.76464
ltoes -37.2841
2063
root -1.86592 16.0052 -9.76638 1090.07 110.31 1079.72
lowerback -2.00597 10.8666 12.9494
upperback -2.77667 14.4384 -0.647808
thorax 1.42847 7.20511 -6.78733
lowerneck -2.21238 -18.55 -7.86753
upperneck 12.6825 -25.1615 6.93212
head 6.08242 -12.1526 1.46544
rclavicle 9.84015e-014 3.65764e-014
rhumerus -13.7289 11.0456 -67.8733
rradius 75.2565
rwrist -233.605
rhand -57.2295 -4.04587
rfingers 7.12502
rthumb -29.5106 -31.7206
lclavicle 9.84015e-014 3.65764e-014
lhumerus -11.3051 10.3578 50.3545
lradius 139.25
lwrist 94.8892
lhand -24.1793 49.0977
lfingers 7.12502
lthumb 2.30424 439.065
rfemur 4.55153 1.53393 -0.674528
rtibia 16.4703
rfoot -25.2486 -40.882
rtoes 18.4583
lfemur -45.8155 6.25146 -13.8092
ltibia 48.8671
lfoot -22.8703 -4.94915
ltoes -36.5096
2064
root -1.87212 15.9552 -9.78911 1090.57 111.132 1079.88
lowerback -1.69427 10.7786 13.4045
upperback -2.82301 14.3661 -0.825087
thorax 1.34215 7.16195 -7.2701
lowerneck -2.15624 -18.6506 -7.54045
upperneck 12.1017 -25.3571 7.49724
head 5.93773 -12.2211 1.59634
rclavicle -3.57812e-015 -4.13472e-014
rhumerus -13.3752 10.268 -68.5967
rradius 74.2928
rwrist -232.46
rhand -57.073 -3.89353
rfingers 7.12502
rthumb -29.3612 -31.5946
lclavicle -3.57812e-015 -4.13472e-014
lhumerus -11.5266 9.20086 50.9886
lradius 138.9
lwrist 93.9485
lhand -23.5055 46.9593
lfingers 7.12502
lthumb 2.95491 436.919
rfemur 4.53864 1.25723 -0.673409
rtibia 16.8347
rfoot -25.2461 -40.2954
rtoes 16.6116
lfemur -46.9145 6.6341 -14.2162
ltibia 49.6976
lfoot -22.7109 -6.4757
ltoes -34.9913
2065
root -1.88164 15.9044 -9.81181 1091.01 111.958 1079.98
lowerback -1.11621 10.424 13.2767
upperback -3.2025 14.0331 -0.580479
thorax 0.451499 6.93172 -7.18192
lowerneck -1.63944 -18.494 -7.66013
upperneck 11.8042 -25.1432 7.62405
head 5.77595 -12.1395 1.73261
rclavicle -4.16935e-014 -1.74931e-014
rhumerus -13.531 11.366 -68.6176
rradius 73.6622
rwrist -232.125
rhand -56.612 -4.29616
rfingers 7.12502
rthumb -28.921 -32.0735
lclavicle -4.16935e-014 -1.74931e-014
lhumerus -13.0558 8.26755 51.6485
lradius 138.775
lwrist 92.7492
lhand -23.3371 46.6155
lfingers 7.12502
lthumb 3.11759 436.572
rfemur 4.52239 1.02293 -0.720222
rtibia 17.1995
rfoot -24.9242 -39.6925
rtoes 14.3986
lfemur -48.005 6.97584 -14.6614
ltibia 50.5065
lfoot -22.4664 -8.08181
ltoes -32.7266
